<?xml version="1.0" standalone="no"?>
<!DOCTYPE svg PUBLIC "-//W3C//DTD SVG 20010904//EN"
 "http://www.w3.org/TR/2001/REC-SVG-20010904/DTD/svg10.dtd">
<svg version="1.0" xmlns="http://www.w3.org/2000/svg"
 width="512.000000pt" height="512.000000pt" viewBox="0 0 512.000000 512.000000"
 preserveAspectRatio="xMidYMid meet">
<metadata>
Created by potrace 1.14, written by Peter Selinger 2001-2017
</metadata>
<g transform="translate(0.000000,512.000000) scale(0.100000,-0.100000)"
fill="#000000" stroke="none">
<path d="M990 4804 c-174 -25 -252 -52 -365 -125 -246 -159 -440 -469 -588
-941 -48 -152 -47 -160 33 -211 38 -24 76 -89 85 -147 3 -19 8 -42 10 -50 8
-28 15 -135 20 -315 16 -537 87 -767 252 -814 55 -16 131 3 224 56 3 2 13 -29
23 -69 50 -196 158 -429 276 -594 64 -89 270 -285 367 -349 57 -37 97 -71 108
-91 9 -18 34 -51 55 -74 33 -37 38 -48 43 -108 21 -248 208 -466 488 -567 178
-64 376 -93 617 -89 153 2 265 17 378 50 75 21 220 85 234 103 3 3 21 18 40
32 138 104 232 258 285 467 22 87 107 196 201 259 230 154 400 344 524 586 49
97 111 252 130 327 6 25 17 62 24 83 l13 38 24 -19 c84 -64 205 -61 277 7 73
71 130 236 147 431 3 30 7 74 9 97 3 23 8 133 11 245 6 203 10 261 20 308 3
14 8 38 11 54 13 75 53 135 104 156 16 6 34 25 41 41 10 26 8 43 -21 137 -255
834 -687 1200 -1243 1056 -75 -19 -193 -62 -237 -85 -19 -11 -43 -19 -53 -19
-11 0 -47 -7 -81 -16 -108 -28 -183 -22 -395 32 -75 20 -188 42 -251 50 -106
14 -431 20 -490 10 -14 -3 -47 -7 -75 -11 -64 -7 -195 -35 -216 -46 -8 -4 -51
-17 -95 -29 -95 -25 -203 -27 -299 -6 -38 8 -77 14 -85 14 -8 0 -51 16 -95 36
-86 37 -225 81 -296 91 -47 7 -164 13 -189 9z m3210 -154 c269 -48 501 -303
673 -740 25 -63 55 -148 67 -188 l22 -72 -42 -46 c-88 -96 -116 -217 -125
-540 -3 -98 -7 -210 -10 -249 -3 -38 -8 -99 -10 -135 -10 -137 -46 -270 -84
-313 -35 -38 -78 -39 -127 -2 -35 27 -91 95 -102 125 -3 8 -13 26 -22 40 -34
51 -119 297 -134 390 -3 19 -8 51 -11 70 -3 19 -10 60 -15 90 -5 30 -12 75
-15 100 -3 25 -10 77 -15 115 -6 39 -12 93 -15 120 -3 28 -10 75 -15 105 -5
30 -12 75 -14 100 -3 25 -10 70 -16 100 -6 30 -13 69 -16 85 -20 117 -77 305
-125 413 -60 134 -176 280 -271 343 -20 13 -34 27 -30 30 16 14 132 48 202 58
129 19 146 19 250 1z m-2955 -14 c63 -19 145 -47 145 -51 0 -1 -24 -18 -52
-37 -127 -84 -229 -214 -291 -368 -27 -69 -72 -216 -80 -265 -4 -25 -23 -129
-43 -229 -2 -11 -6 -42 -9 -70 -3 -28 -8 -58 -10 -66 -2 -8 -7 -44 -11 -80 -4
-36 -8 -72 -9 -80 -1 -8 -5 -46 -10 -85 -4 -38 -9 -77 -10 -85 -1 -8 -6 -40
-10 -70 -41 -329 -152 -637 -272 -758 -45 -45 -57 -52 -92 -52 -63 0 -86 33
-119 170 -27 111 -38 251 -47 560 -5 189 -9 231 -30 332 -19 90 -54 162 -102
212 l-37 37 29 87 c125 380 290 655 482 801 48 37 151 86 220 106 62 18 287
12 358 -9z m1580 -43 c55 -7 125 -20 155 -27 30 -8 100 -26 155 -41 108 -28
243 -38 310 -23 95 22 270 -71 376 -199 87 -106 177 -327 214 -530 2 -15 7
-39 10 -53 2 -13 7 -42 10 -65 3 -22 10 -65 15 -95 5 -30 12 -82 15 -115 4
-33 8 -70 10 -81 2 -12 6 -48 10 -80 5 -53 13 -110 30 -224 2 -19 7 -45 9 -56
2 -12 7 -38 10 -59 25 -157 110 -413 166 -502 l28 -44 -15 -67 c-89 -406 -289
-738 -563 -935 -36 -25 -70 -51 -76 -56 -8 -7 -13 9 -17 56 -8 87 -58 191
-272 568 -53 93 -157 259 -258 410 -151 226 -208 291 -312 350 -175 99 -411
93 -574 -15 -98 -65 -145 -120 -288 -335 -183 -275 -293 -459 -423 -709 -83
-162 -99 -201 -109 -278 l-6 -49 -45 32 c-299 215 -486 510 -585 922 l-26 107
42 87 c75 158 129 346 169 588 28 172 28 171 35 235 3 30 10 89 16 131 5 41
11 93 14 115 4 41 10 88 20 158 30 208 115 442 207 565 110 146 279 241 399
225 117 -16 228 -6 345 30 105 33 207 57 274 63 30 2 57 7 60 9 10 11 370 0
465 -13z m-134 -1958 c119 -42 190 -114 343 -345 174 -262 278 -438 419 -709
71 -136 80 -160 81 -210 1 -47 -5 -69 -38 -131 -53 -104 -90 -154 -167 -232
-173 -173 -378 -196 -671 -76 l-98 40 -97 -40 c-130 -53 -215 -73 -316 -73
-139 -1 -238 38 -343 134 -111 101 -216 282 -217 372 -1 59 23 116 136 325
192 353 453 756 552 849 54 51 137 97 192 107 15 3 29 7 31 8 8 9 155 -6 193
-19z m-908 -1809 c178 -130 428 -144 702 -37 l77 30 46 -21 c190 -82 394 -103
546 -58 74 23 184 78 206 105 30 36 29 10 -2 -47 -121 -228 -358 -337 -738
-341 -93 -1 -241 8 -290 18 -14 3 -52 10 -85 15 -243 43 -443 170 -524 334
-38 76 -39 87 -3 55 15 -14 44 -38 65 -53z"/>
<path d="M1639 3146 c-55 -19 -107 -54 -134 -90 -48 -63 -58 -102 -60 -243 -2
-118 0 -138 21 -189 103 -255 471 -223 529 45 14 63 7 251 -11 305 -46 136
-212 220 -345 172z m166 -112 c108 -108 -34 -271 -163 -186 -60 39 -67 134
-15 186 52 52 126 52 178 0z"/>
<path d="M3315 3146 c-80 -29 -125 -70 -168 -150 -18 -35 -22 -59 -23 -176 -3
-164 8 -208 71 -278 137 -152 370 -115 459 72 21 45 24 64 24 180 0 170 -12
211 -82 282 -41 40 -66 56 -109 69 -60 17 -126 18 -172 1z m153 -89 c32 -15
62 -68 62 -108 0 -125 -166 -172 -230 -66 -68 110 49 232 168 174z"/>
<path d="M2412 2014 c-160 -37 -256 -115 -280 -227 -14 -66 -8 -120 18 -162
52 -84 252 -234 376 -281 l44 -17 94 47 c111 56 171 98 244 175 64 67 83 100
87 155 11 149 -97 268 -284 312 -50 12 -246 11 -299 -2z"/>
</g>
</svg>
